<svg width=50 height=50 xmlns="http://www.w3.org/2000/svg" version="1.1"><g transform="translate(0,0)"><rect class="charts__heatmap__rect-element" x="0" y="0" width="50" height="50"></rect><rect class="charts__heatmap__rect-element" x="0" y="0" width="7.142857142857143" height="6.25" style="fill: rgb(31, 91, 169);">6</rect><rect class="charts__heatmap__rect-element" x="7.142857142857143" y="0" width="7.142857142857143" height="6.25" style="fill: rgb(0, 103, 192);">0</rect><rect class="charts__heatmap__rect-element" x="14.285714285714286" y="0" width="7.142857142857143" height="6.25" style="fill: rgb(163, 37, 69);">32</rect><rect class="charts__heatmap__rect-element" x="21.42857142857143" y="0" width="7.142857142857143" height="6.25" style="fill: rgb(20, 95, 177);">4</rect><rect class="charts__heatmap__rect-element" x="28.571428571428573" y="0" width="7.142857142857143" height="6.25" style="fill: rgb(56, 80, 150);">11</rect><rect class="charts__heatmap__rect-element" x="35.714285714285715" y="0" width="7.142857142857143" height="6.25" style="fill: rgb(235, 8, 15);">46</rect><rect class="charts__heatmap__rect-element" x="42.85714285714286" y="0" width="7.142857142857143" height="6.25" style="fill: rgb(10, 99, 184);">2</rect><rect class="charts__heatmap__rect-element" x="0" y="6.25" width="7.142857142857143" height="6.25" style="fill: rgb(219, 14, 27);">43</rect><rect class="charts__heatmap__rect-element" x="7.142857142857143" y="6.25" width="7.142857142857143" height="6.25" style="fill: rgb(31, 91, 169);">6</rect><rect class="charts__heatmap__rect-element" x="14.285714285714286" y="6.25" width="7.142857142857143" height="6.25" style="fill: rgb(168, 35, 65);">33</rect><rect class="charts__heatmap__rect-element" x="21.42857142857143" y="6.25" width="7.142857142857143" height="6.25" style="fill: rgb(235, 8, 15);">46</rect><rect class="charts__heatmap__rect-element" x="28.571428571428573" y="6.25" width="7.142857142857143" height="6.25" style="fill: rgb(230, 10, 19);">45</rect><rect class="charts__heatmap__rect-element" x="35.714285714285715" y="6.25" width="7.142857142857143" height="6.25" style="fill: rgb(143, 45, 84);">28</rect><rect class="charts__heatmap__rect-element" x="42.85714285714286" y="6.25" width="7.142857142857143" height="6.25" style="fill: rgb(117, 56, 104);">23</rect><rect class="charts__heatmap__rect-element" x="0" y="12.5" width="7.142857142857143" height="6.25" style="fill: rgb(122, 54, 100);">24</rect><rect class="charts__heatmap__rect-element" x="7.142857142857143" y="12.5" width="7.142857142857143" height="6.25" style="fill: rgb(245, 4, 8);">48</rect><rect class="charts__heatmap__rect-element" x="14.285714285714286" y="12.5" width="7.142857142857143" height="6.25" style="fill: rgb(179, 31, 58);">35</rect><rect class="charts__heatmap__rect-element" x="21.42857142857143" y="12.5" width="7.142857142857143" height="6.25" style="fill: rgb(153, 41, 77);">30</rect><rect class="charts__heatmap__rect-element" x="28.571428571428573" y="12.5" width="7.142857142857143" height="6.25" style="fill: rgb(71, 74, 138);">14</rect><rect class="charts__heatmap__rect-element" x="35.714285714285715" y="12.5" width="7.142857142857143" height="6.25" style="fill: rgb(56, 80, 150);">11</rect><rect class="charts__heatmap__rect-element" x="42.85714285714286" y="12.5" width="7.142857142857143" height="6.25" style="fill: rgb(20, 95, 177);">4</rect><rect class="charts__heatmap__rect-element" x="0" y="18.75" width="7.142857142857143" height="6.25" style="fill: rgb(122, 54, 100);">24</rect><rect class="charts__heatmap__rect-element" x="7.142857142857143" y="18.75" width="7.142857142857143" height="6.25" style="fill: rgb(51, 82, 154);">10</rect><rect class="charts__heatmap__rect-element" x="14.285714285714286" y="18.75" width="7.142857142857143" height="6.25" style="fill: rgb(122, 54, 100);">24</rect><rect class="charts__heatmap__rect-element" x="21.42857142857143" y="18.75" width="7.142857142857143" height="6.25" style="fill: rgb(10, 99, 184);">2</rect><rect class="charts__heatmap__rect-element" x="28.571428571428573" y="18.75" width="7.142857142857143" height="6.25" style="fill: rgb(31, 91, 169);">6</rect><rect class="charts__heatmap__rect-element" x="35.714285714285715" y="18.75" width="7.142857142857143" height="6.25" style="fill: rgb(31, 91, 169);">6</rect><rect class="charts__heatmap__rect-element" x="42.85714285714286" y="18.75" width="7.142857142857143" height="6.25" style="fill: rgb(138, 47, 88);">27</rect><rect class="charts__heatmap__rect-element" x="0" y="25" width="7.142857142857143" height="6.25" style="fill: rgb(71, 74, 138);">14</rect><rect class="charts__heatmap__rect-element" x="7.142857142857143" y="25" width="7.142857142857143" height="6.25" style="fill: rgb(235, 8, 15);">46</rect><rect class="charts__heatmap__rect-element" x="14.285714285714286" y="25" width="7.142857142857143" height="6.25" style="fill: rgb(46, 84, 157);">9</rect><rect class="charts__heatmap__rect-element" x="21.42857142857143" y="25" width="7.142857142857143" height="6.25" style="fill: rgb(26, 93, 173);">5</rect><rect class="charts__heatmap__rect-element" x="28.571428571428573" y="25" width="7.142857142857143" height="6.25" style="fill: rgb(71, 74, 138);">14</rect><rect class="charts__heatmap__rect-element" x="35.714285714285715" y="25" width="7.142857142857143" height="6.25" style="fill: rgb(128, 52, 96);">25</rect><rect class="charts__heatmap__rect-element" x="42.85714285714286" y="25" width="7.142857142857143" height="6.25" style="fill: rgb(163, 37, 69);">32</rect><rect class="charts__heatmap__rect-element" x="0" y="31.25" width="7.142857142857143" height="6.25" style="fill: rgb(46, 84, 157);">9</rect><rect class="charts__heatmap__rect-element" x="7.142857142857143" y="31.25" width="7.142857142857143" height="6.25" style="fill: rgb(209, 19, 35);">41</rect><rect class="charts__heatmap__rect-element" x="14.285714285714286" y="31.25" width="7.142857142857143" height="6.25" style="fill: rgb(189, 27, 50);">37</rect><rect class="charts__heatmap__rect-element" x="21.42857142857143" y="31.25" width="7.142857142857143" height="6.25" style="fill: rgb(41, 87, 161);">8</rect><rect class="charts__heatmap__rect-element" x="28.571428571428573" y="31.25" width="7.142857142857143" height="6.25" style="fill: rgb(82, 70, 131);">16</rect><rect class="charts__heatmap__rect-element" x="35.714285714285715" y="31.25" width="7.142857142857143" height="6.25" style="fill: rgb(168, 35, 65);">33</rect><rect class="charts__heatmap__rect-element" x="42.85714285714286" y="31.25" width="7.142857142857143" height="6.25" style="fill: rgb(102, 62, 115);">20</rect><rect class="charts__heatmap__rect-element" x="0" y="37.5" width="7.142857142857143" height="6.25" style="fill: rgb(224, 12, 23);">44</rect><rect class="charts__heatmap__rect-element" x="7.142857142857143" y="37.5" width="7.142857142857143" height="6.25" style="fill: rgb(214, 16, 31);">42</rect><rect class="charts__heatmap__rect-element" x="14.285714285714286" y="37.5" width="7.142857142857143" height="6.25" style="fill: rgb(15, 97, 180);">3</rect><rect class="charts__heatmap__rect-element" x="21.42857142857143" y="37.5" width="7.142857142857143" height="6.25" style="fill: rgb(31, 91, 169);">6</rect><rect class="charts__heatmap__rect-element" x="28.571428571428573" y="37.5" width="7.142857142857143" height="6.25" style="fill: rgb(204, 21, 38);">40</rect><rect class="charts__heatmap__rect-element" x="35.714285714285715" y="37.5" width="7.142857142857143" height="6.25" style="fill: rgb(92, 66, 123);">18</rect><rect class="charts__heatmap__rect-element" x="42.85714285714286" y="37.5" width="7.142857142857143" height="6.25" style="fill: rgb(245, 4, 8);">48</rect><rect class="charts__heatmap__rect-element" x="0" y="43.75" width="7.142857142857143" height="6.25" style="fill: rgb(20, 95, 177);">4</rect><rect class="charts__heatmap__rect-element" x="7.142857142857143" y="43.75" width="7.142857142857143" height="6.25" style="fill: rgb(194, 25, 46);">38</rect><rect class="charts__heatmap__rect-element" x="14.285714285714286" y="43.75" width="7.142857142857143" height="6.25" style="fill: rgb(61, 78, 146);">12</rect><rect class="charts__heatmap__rect-element" x="21.42857142857143" y="43.75" width="7.142857142857143" height="6.25" style="fill: rgb(112, 58, 108);">22</rect><rect class="charts__heatmap__rect-element" x="28.571428571428573" y="43.75" width="7.142857142857143" height="6.25" style="fill: rgb(112, 58, 108);">22</rect><rect class="charts__heatmap__rect-element" x="35.714285714285715" y="43.75" width="7.142857142857143" height="6.25" style="fill: rgb(5, 101, 188);">1</rect><rect class="charts__heatmap__rect-element" x="42.85714285714286" y="43.75" width="7.142857142857143" height="6.25" style="fill: rgb(92, 66, 123);">18</rect></g></svg>
